<svg xmlns="http://www.w3.org/2000/svg" width="24" height="24" viewBox="0 0 24 24" fill="none">
  <path d="M12 2.25C6.61547 2.25 2.25 6.61547 2.25 12C2.25 17.3845 6.61547 21.75 12 21.75C17.3845 21.75 21.75 17.3845 21.75 12C21.75 6.61547 17.3845 2.25 12 2.25Z" stroke="#373A36" stroke-width="2" stroke-miterlimit="10"/>
  <path d="M12 2.25C9.27797 2.25 6.7186 6.61547 6.7186 12C6.7186 17.3845 9.27797 21.75 12 21.75C14.722 21.75 17.2814 17.3845 17.2814 12C17.2814 6.61547 14.722 2.25 12 2.25Z" stroke="#373A36" stroke-width="2" stroke-miterlimit="10"/>
  <path d="M5.49985 5.49985C7.29235 6.7725 9.54891 7.53141 12 7.53141C14.4511 7.53141 16.7077 6.7725 18.5002 5.49985M18.5002 18.5002C16.7077 17.2275 14.4511 16.4686 12 16.4686C9.54891 16.4686 7.29235 17.2275 5.49985 18.5002" stroke="#373A36" stroke-width="2" stroke-linecap="round" stroke-linejoin="round"/>
  <path d="M12 2.25V21.75M21.75 12H2.25" stroke="#373A36" stroke-width="2" stroke-miterlimit="10"/>
</svg>