<svg xmlns="http://www.w3.org/2000/svg" width="21" height="20" viewBox="0 0 21 20" fill="none">
  <path d="M4.08436 14.8438C4.13085 14.6727 4.02811 14.4348 3.93007 14.2633C3.89954 14.2121 3.86642 14.1626 3.83085 14.1148C2.98994 12.8396 2.54173 11.3455 2.54179 9.81797C2.52811 5.4332 6.16405 1.875 10.6601 1.875C14.5812 1.875 17.8543 4.59141 18.6191 8.19727C18.7337 8.73187 18.7916 9.27708 18.7918 9.82383C18.7918 14.2148 15.2961 17.8289 10.8 17.8289C10.0851 17.8289 9.1203 17.6492 8.59413 17.502C8.06796 17.3547 7.54257 17.1594 7.40702 17.107C7.26839 17.0537 7.12116 17.0263 6.97265 17.0262C6.81042 17.0256 6.64976 17.0578 6.50038 17.1211L3.85077 18.0773C3.79272 18.1024 3.73122 18.1184 3.66835 18.125C3.61874 18.1249 3.56965 18.1149 3.52393 18.0956C3.47821 18.0763 3.43676 18.0482 3.40199 18.0128C3.36722 17.9774 3.33982 17.9355 3.32137 17.8894C3.30292 17.8434 3.2938 17.7941 3.29452 17.7445C3.29778 17.701 3.30564 17.6579 3.31796 17.616L4.08436 14.8438Z" stroke="#373A36" stroke-width="2" stroke-miterlimit="10" stroke-linecap="round"/>
</svg>