<svg xmlns="http://www.w3.org/2000/svg" width="300" height="300" viewBox="0 0 300 300" fill="none">
<path d="M21.3923 192.582C9.62306 192.582 -0.00634766 202.211 -0.00634766 213.98V278.177C-0.00634766 289.946 9.62306 299.575 21.3923 299.575H85.5884C97.3577 299.575 106.987 289.946 106.987 278.177C106.987 266.407 97.3577 256.778 85.5884 256.778H42.791V213.98C42.791 202.211 33.1616 192.582 21.3923 192.582ZM21.3923 106.987C33.1616 106.987 42.791 97.3575 42.791 85.5882V42.7909H85.5884C97.3577 42.7909 106.987 33.1614 106.987 21.3922C106.987 9.62288 97.3577 -0.00653076 85.5884 -0.00653076H21.3923C9.62306 -0.00653076 -0.00634766 9.62288 -0.00634766 21.3922V85.5882C-0.00634766 97.3575 9.62306 106.987 21.3923 106.987ZM256.778 256.778H213.981C202.211 256.778 192.582 266.407 192.582 278.177C192.582 289.946 202.211 299.575 213.981 299.575H278.177C289.946 299.575 299.575 289.946 299.575 278.177V213.98C299.575 202.211 289.946 192.582 278.177 192.582C266.407 192.582 256.778 202.211 256.778 213.98V256.778ZM192.582 21.3922C192.582 33.1614 202.211 42.7909 213.981 42.7909H256.778V85.5882C256.778 97.3575 266.407 106.987 278.177 106.987C289.946 106.987 299.575 97.3575 299.575 85.5882V21.3922C299.575 9.62288 289.946 -0.00653076 278.177 -0.00653076H213.981C202.211 -0.00653076 192.582 9.62288 192.582 21.3922Z" fill="white"/>
</svg>