<svg xmlns="http://www.w3.org/2000/svg" width="24" height="24" viewBox="0 0 24 24" fill="none">
  <path d="M18.8437 7.875C18.7064 9.78141 17.2922 11.25 15.75 11.25C14.2078 11.25 12.7912 9.78188 12.6562 7.875C12.5156 5.89172 13.8923 4.5 15.75 4.5C17.6076 4.5 18.9844 5.92781 18.8437 7.875Z" stroke="#373A36" stroke-width="2" stroke-linecap="round" stroke-linejoin="round"/>
  <path d="M15.75 14.25C12.6952 14.25 9.7575 15.7673 9.02156 18.7223C8.92406 19.1133 9.16922 19.5 9.57093 19.5H21.9295C22.3312 19.5 22.575 19.1133 22.4789 18.7223C21.743 15.72 18.8053 14.25 15.75 14.25Z" stroke="#373A36" stroke-width="2" stroke-miterlimit="10"/>
  <path d="M9.37501 8.71594C9.26532 10.2384 8.12251 11.4375 6.89063 11.4375C5.65876 11.4375 4.51407 10.2389 4.40626 8.71594C4.29422 7.13203 5.40657 6 6.89063 6C8.37469 6 9.48704 7.16109 9.37501 8.71594Z" stroke="#373A36" stroke-width="2" stroke-linecap="round" stroke-linejoin="round"/>
  <path d="M9.65625 14.3438C8.81016 13.9561 7.87828 13.807 6.89063 13.807C4.45313 13.807 2.10469 15.0188 1.51641 17.3789C1.43906 17.6911 1.635 18 1.95563 18H7.21875" stroke="#373A36" stroke-width="2" stroke-miterlimit="10" stroke-linecap="round"/>
</svg>