<svg xmlns="http://www.w3.org/2000/svg" width="40" height="39" viewBox="0 0 40 39" fill="none">
  <g clip-path="url(#clip0_4965_11503)">
    <g filter="url(#filter0_d_4965_11503)">
      <path d="M10.7109 33.2293C10.2472 33.2284 9.79177 33.1069 9.38931 32.8766C8.48306 32.3631 7.91968 31.3662 7.91968 30.284V8.38295C7.91968 7.29771 8.48306 6.30386 9.38931 5.79032C9.80136 5.55351 10.2694 5.43173 10.7447 5.43771C11.2199 5.44369 11.6847 5.5772 12.0907 5.8243L30.8085 17.0286C31.1986 17.2732 31.5202 17.6128 31.7431 18.0157C31.966 18.4186 32.083 18.8715 32.083 19.332C32.083 19.7924 31.966 20.2453 31.7431 20.6482C31.5202 21.0511 31.1986 21.3907 30.8085 21.6353L12.0877 32.8426C11.6722 33.0938 11.1964 33.2274 10.7109 33.2293Z" fill="white"/>
    </g>
  </g>
  <defs>
    <filter id="filter0_d_4965_11503" x="3.91968" y="5.4375" width="32.1633" height="35.792" filterUnits="userSpaceOnUse" color-interpolation-filters="sRGB">
      <feFlood flood-opacity="0" result="BackgroundImageFix"/>
      <feColorMatrix in="SourceAlpha" type="matrix" values="0 0 0 0 0 0 0 0 0 0 0 0 0 0 0 0 0 0 127 0" result="hardAlpha"/>
      <feOffset dy="4"/>
      <feGaussianBlur stdDeviation="2"/>
      <feComposite in2="hardAlpha" operator="out"/>
      <feColorMatrix type="matrix" values="0 0 0 0 0 0 0 0 0 0 0 0 0 0 0 0 0 0 0.25 0"/>
      <feBlend mode="normal" in2="BackgroundImageFix" result="effect1_dropShadow_4965_11503"/>
      <feBlend mode="normal" in="SourceGraphic" in2="effect1_dropShadow_4965_11503" result="shape"/>
    </filter>
    <clipPath id="clip0_4965_11503">
      <rect width="38.6667" height="38.6667" fill="white" transform="translate(0.666748)"/>
    </clipPath>
  </defs>
</svg>