<svg xmlns="http://www.w3.org/2000/svg" width="64" height="64" viewBox="0 0 64 64" fill="none">
  <path d="M41.4303 8.44637C39.0358 5.86115 35.6914 4.4375 32 4.4375C28.2889 4.4375 24.9334 5.85254 22.55 8.42176C20.1407 11.0193 18.9668 14.5495 19.2425 18.3615C19.7888 25.8821 25.5117 32 32 32C38.4882 32 44.2013 25.8833 44.7562 18.3639C45.0356 14.5864 43.8543 11.0636 41.4303 8.44637ZM53.6562 59.5625H10.3437C9.7768 59.5699 9.21537 59.4508 8.70026 59.2139C8.18516 58.977 7.72935 58.6282 7.36599 58.193C6.56618 57.2369 6.2438 55.9314 6.48251 54.6111C7.52103 48.85 10.7621 44.0106 15.8562 40.6133C20.3819 37.5974 26.1146 35.9375 32 35.9375C37.8853 35.9375 43.6181 37.5986 48.1437 40.6133C53.2379 44.0094 56.4789 48.8488 57.5174 54.6099C57.7561 55.9302 57.4338 57.2357 56.634 58.1918C56.2707 58.6272 55.815 58.9762 55.2998 59.2133C54.7847 59.4504 54.2232 59.5697 53.6562 59.5625Z" fill="white"/>
</svg>