<svg xmlns="http://www.w3.org/2000/svg" width="40" height="40" viewBox="0 0 40 40" fill="none">
  <path d="M16.3076 33.5383H12.6153C12.2889 33.5383 11.9758 33.4087 11.745 33.1779C11.5142 32.9471 11.3845 32.634 11.3845 32.3076V7.69219C11.3845 7.36577 11.5142 7.05272 11.745 6.82191C11.9758 6.5911 12.2889 6.46143 12.6153 6.46143H16.3076C16.634 6.46143 16.9471 6.5911 17.1779 6.82191C17.4087 7.05272 17.5384 7.36577 17.5384 7.69219V32.3076C17.5384 32.634 17.4087 32.9471 17.1779 33.1779C16.9471 33.4087 16.634 33.5383 16.3076 33.5383ZM27.3845 33.5383H23.6922C23.3658 33.5383 23.0527 33.4087 22.8219 33.1779C22.5911 32.9471 22.4614 32.634 22.4614 32.3076V7.69219C22.4614 7.36577 22.5911 7.05272 22.8219 6.82191C23.0527 6.5911 23.3658 6.46143 23.6922 6.46143H27.3845C27.7109 6.46143 28.024 6.5911 28.2548 6.82191C28.4856 7.05272 28.6153 7.36577 28.6153 7.69219V32.3076C28.6153 32.634 28.4856 32.9471 28.2548 33.1779C28.024 33.4087 27.7109 33.5383 27.3845 33.5383Z" fill="white"/>
</svg>