<svg xmlns="http://www.w3.org/2000/svg" width="25" height="24" viewBox="0 0 25 24" fill="none">
  <path d="M19.5 22.5C19.3166 22.5005 19.1393 22.4338 19.0017 22.3125L12.75 16.7536L6.49828 22.3125C6.3901 22.4087 6.25639 22.4715 6.1133 22.4933C5.97021 22.5152 5.82385 22.4952 5.69187 22.4357C5.5599 22.3763 5.44796 22.2799 5.36955 22.1582C5.29115 22.0365 5.24963 21.8948 5.25 21.75V4.5C5.25087 3.70462 5.56722 2.94206 6.12964 2.37964C6.69206 1.81722 7.45462 1.50087 8.25 1.5H17.25C18.0454 1.50087 18.8079 1.81722 19.3704 2.37964C19.9328 2.94206 20.2491 3.70462 20.25 4.5V21.75C20.25 21.9489 20.171 22.1397 20.0303 22.2803C19.8897 22.421 19.6989 22.5 19.5 22.5Z" fill="#DA291C"/>
</svg>