<svg xmlns="http://www.w3.org/2000/svg" width="20" height="20" viewBox="0 0 20 20" fill="none">
  <path d="M5 11.875C6.03553 11.875 6.875 11.0355 6.875 10C6.875 8.96447 6.03553 8.125 5 8.125C3.96447 8.125 3.125 8.96447 3.125 10C3.125 11.0355 3.96447 11.875 5 11.875Z" stroke="#373A36" stroke-width="2" stroke-linecap="round" stroke-linejoin="round"/>
  <path d="M15 6.25C16.0355 6.25 16.875 5.41053 16.875 4.375C16.875 3.33947 16.0355 2.5 15 2.5C13.9645 2.5 13.125 3.33947 13.125 4.375C13.125 5.41053 13.9645 6.25 15 6.25Z" stroke="#373A36" stroke-width="2" stroke-linecap="round" stroke-linejoin="round"/>
  <path d="M15 17.5C16.0355 17.5 16.875 16.6605 16.875 15.625C16.875 14.5895 16.0355 13.75 15 13.75C13.9645 13.75 13.125 14.5895 13.125 15.625C13.125 16.6605 13.9645 17.5 15 17.5Z" stroke="#373A36" stroke-width="2" stroke-linecap="round" stroke-linejoin="round"/>
  <path d="M6.63403 10.9189L13.3661 14.7057M13.3661 5.29395L6.63403 9.08066" stroke="#373A36" stroke-width="2" stroke-linecap="round" stroke-linejoin="round"/>
</svg>