<svg xmlns="http://www.w3.org/2000/svg" width="21" height="20" viewBox="0 0 21 20" fill="none">
  <path d="M15.9583 18.75C15.8054 18.7504 15.6577 18.6949 15.543 18.5938L10.3333 13.9613L5.12349 18.5938C5.03333 18.6739 4.92191 18.7262 4.80267 18.7445C4.68343 18.7627 4.56146 18.746 4.45148 18.6964C4.3415 18.6469 4.24822 18.5666 4.18288 18.4652C4.11754 18.3638 4.08294 18.2456 4.08325 18.125V3.75C4.08398 3.08718 4.3476 2.45172 4.81629 1.98303C5.28497 1.51435 5.92043 1.25072 6.58325 1.25H14.0833C14.7461 1.25072 15.3815 1.51435 15.8502 1.98303C16.3189 2.45172 16.5825 3.08718 16.5833 3.75V18.125C16.5833 18.2908 16.5174 18.4497 16.4002 18.5669C16.283 18.6842 16.124 18.75 15.9583 18.75Z" fill="#DA291C"/>
</svg>