<svg xmlns="http://www.w3.org/2000/svg" width="282" height="282" viewBox="0 0 282 282" fill="none">
<path d="M211.065 140.956C211.065 113.38 195.174 89.6992 172.116 78.1702V112.601L210.286 150.772C210.753 147.656 211.065 144.384 211.065 140.956ZM250.014 140.956C250.014 155.601 246.898 169.311 241.601 182.087L265.126 205.612C275.409 186.293 281.173 164.326 281.173 140.956C281.173 74.2753 234.59 18.5 172.116 4.32247V36.4166C217.141 49.8152 250.014 91.5687 250.014 140.956ZM20.5252 0.739136L0.739014 20.5253L74.431 94.2173H0.739014V187.695H63.0578L140.956 265.594V160.743L207.17 226.956C196.732 235.058 185.047 241.445 172.116 245.34V277.434C193.616 272.605 213.09 262.634 229.605 249.235L261.387 281.174L281.173 261.387L140.956 121.17L20.5252 0.739136ZM140.956 16.3188L108.395 48.8804L140.956 81.4419V16.3188Z" fill="white"/>
</svg>